{"title":"Five Minarets in New York 2010 720p BRRip x264 AC3","uid":6305618,"size":3166120829,"categoryP":"video","categoryS":"hd___movies","magnet":"?xt=urn:btih:920fc2c6fc0ed96b7555fc7e5541af39c315e968&amp;dn=Five+Minarets+in+New+York+2010+720p+BRRip+x264+AC3&amp;tr=udp%3A%2F%2Ftracker.openbittorrent.com%3A80&amp;tr=udp%3A%2F%2Fopen.demonii.com%3A1337&amp;tr=udp%3A%2F%2Ftracker.coppersurfer.tk%3A6969&amp;tr=udp%3A%2F%2Fexodus.desync.com%3A6969","seeders":0,"leechers":0,"uploader":"bandits99","files":5,"time":1302320671,"description":" &lt;a href=&quot;http://srv13.fotocunuz.com/493five_minarets.jpg&quot; rel=&quot;nofollow&quot; target=&quot;_NEW&quot;&gt;http://srv13.fotocunuz.com/493five_minarets.jpg&lt;/a&gt; &lt;a href=&quot;\nhttp://www.newyorktabesminare.com/en/index.html&quot; rel=&quot;nofollow&quot; target=&quot;_NEW&quot;&gt;\nhttp://www.newyorktabesminare.com/en/index.html&lt;/a&gt;\n\nStoryline:\nTwo Turkish anti-terrorist agents are sent to New York City on a mission to find and bring back the dangerous Islamic leader codenamed \\&quot;Dajjal\\&quot;, believed to be hiding in there. Working with the FBI and NYPD, the agents orchestrate the arrest of Hadji Gumus, a well-respected Muslim scholar and family man who years before fled to the United States after being released from a Turkish prison, where he served time for murder. This tale love, friendship, peace and prejudices, takes us on a journey seeking to answer the question of whether innocence or guilt even matters to one who lusts for vengeance.\n\n\n\nFormat                           : Matroska\nFile size                        : 2.95 GiB\nDuration                         : 1h 56mn\nOverall bit rate                 : 3 623 Kbps\nEncoded date                     : UTC 2011-04-06 20:12:49\nVideo\nID                               : 1\nFormat                           : AVC\nFormat/Info                      : Advanced Video Codec\nFormat profile                   : &lt;a class=&quot;__cf_email__&quot; href=&quot;/cdn-cgi/l/email-protection&quot; data-cfemail=&quot;1e567779765e522a302f&quot;&gt;[email&amp;#160;protected]&lt;/a&gt;&lt;script cf-hash='f9e31' type=&quot;text/javascript&quot;&gt;\n/* &lt;![CDATA[ */!function(){try{var t=&quot;currentScript&quot;in document?document.currentScript:function(){for(var t=document.getElementsByTagName(&quot;script&quot;),e=t.length;e--;)if(t[e].getAttribute(&quot;cf-hash&quot;))return t[e]}();if(t&amp;&amp;t.previousSibling){var e,r,n,i,c=t.previousSibling,a=c.getAttribute(&quot;data-cfemail&quot;);if(a){for(e=&quot;&quot;,r=parseInt(a.substr(0,2),16),n=2;a.length-n;n+=2)i=parseInt(a.substr(n,2),16)^r,e+=String.fromCharCode(i);e=document.createTextNode(e),c.parentNode.replaceChild(e,c)}}}catch(u){}}();/* ]]&gt; */&lt;/script&gt;\nFormat settings, CABAC           : Yes\nFormat settings, ReFrames        : 4 frames\nCodec ID                         : V_MPEG4/ISO/AVC\nDuration                         : 1h 56mn\nBit rate                         : 2 983 Kbps\nWidth                            : 1 280 pixels\nHeight                           : 544 pixels\nDisplay aspect ratio             : 2.35:1\nFrame rate                       : 23.976 fps\nColor space                      : YUV\nChroma subsampling               : 4:2:0\nBit depth                        : 8 bits\nScan type                        : Progressive\nBits/(Pixel*Frame)               : 0.179\nStream size                      : 2.37 GiB (80%)\nWriting library                  : x264 core 114 r1913 5fd3dce\nLanguage                         : English\nAudio\nID                               : 2\nFormat                           : AC-3\nFormat/Info                      : Audio Coding 3\nMode extension                   : CM (complete main)\nCodec ID                         : A_AC3\nDuration                         : 1h 56mn\nBit rate mode                    : Constant\nBit rate                         : 640 Kbps\nChannel(s)                       : 6 channels\nChannel positions                : Front: L C R, Side: L R, LFE\nSampling rate                    : 48.0 KHz\nBit depth                        : 16 bits\nCompression mode                 : Lossy\nStream size                      : 533 MiB (18%)","torrent":{"xt":"urn:btih:920fc2c6fc0ed96b7555fc7e5541af39c315e968","amp;dn":"Five+Minarets+in+New+York+2010+720p+BRRip+x264+AC3","amp;tr":["udp%3A%2F%2Ftracker.openbittorrent.com%3A80","udp%3A%2F%2Fopen.demonii.com%3A1337","udp%3A%2F%2Ftracker.coppersurfer.tk%3A6969","udp%3A%2F%2Fexodus.desync.com%3A6969"],"infoHash":"920fc2c6fc0ed96b7555fc7e5541af39c315e968","infoHashBuffer":{"type":"Buffer","data":[146,15,194,198,252,14,217,107,117,85,252,126,85,65,175,57,195,21,233,104]},"announce":[],"urlList":[]}}